<?xml version="1.0" encoding="UTF-8" standalone="no"?>
<svg
   xmlns:dc="http://purl.org/dc/elements/1.1/"
   xmlns:cc="http://creativecommons.org/ns#"
   xmlns:rdf="http://www.w3.org/1999/02/22-rdf-syntax-ns#"
   xmlns:svg="http://www.w3.org/2000/svg"
   xmlns="http://www.w3.org/2000/svg"
   xml:space="preserve"
   enable-background="new 0 0 144 30.859"
   viewBox="0 0 432 92.592005"
   height="92.592003"
   width="432"
   y="0px"
   x="0px"
   id="Layer_1"
   version="1.1"><metadata
     id="metadata27"><rdf:RDF><cc:Work
         rdf:about=""><dc:format>image/svg+xml</dc:format><dc:type
           rdf:resource="http://purl.org/dc/dcmitype/StillImage" /><dc:title></dc:title></cc:Work></rdf:RDF></metadata><defs
     id="defs25" /><g
     transform="matrix(3,0,0,3,0,0.00600143)"
     id="g20"><path
       style="fill:#4f6f19"
       id="path2"
       d="M 0,19.416 C 0,11.512 6.483,3.87 15.552,3.87 c 7.045,0 11.804,4.958 11.804,11.445 0,7.904 -6.483,15.547 -15.589,15.547 C 4.722,30.861 0,25.902 0,19.416 Z m 22.56,-3.84 c 0,-4.288 -2.773,-7.494 -7.458,-7.494 -6.071,0 -10.305,5.741 -10.305,11.072 0,4.324 2.773,7.494 7.457,7.494 6.071,0 10.306,-5.742 10.306,-11.072 z" /><path
       style="fill:#4f6f19"
       id="path4"
       d="m 31.002,10.729 h 4.534 l -0.674,2.535 c 1.574,-1.566 3.485,-2.945 5.996,-2.945 3.672,0 6.034,2.274 6.034,5.891 0,1.043 -0.3,2.311 -0.6,3.466 L 43.444,30.414 H 38.91 L 41.833,19.49 c 0.188,-0.634 0.3,-1.417 0.3,-1.977 0,-1.976 -1.274,-3.094 -3.448,-3.094 -2.548,0 -4.647,2.014 -5.434,4.921 l -2.998,11.073 h -4.534 z" /><path
       style="fill:#4f6f19"
       id="path6"
       d="m 56.203,27.17 c 1.911,0 3.373,-0.635 5.059,-1.902 l 2.173,2.871 c -1.873,1.529 -4.271,2.723 -7.682,2.723 -5.509,0 -8.994,-3.318 -8.994,-8.613 0,-5.814 4.759,-11.929 11.654,-11.929 5.059,0 7.907,3.355 7.907,7.642 0,1.38 -0.337,2.834 -0.861,4.176 h -14.39 c 0,2.981 1.761,5.032 5.134,5.032 z m 5.62,-8.016 c 0.113,-0.336 0.188,-0.82 0.188,-1.379 0,-2.051 -1.199,-3.766 -3.935,-3.766 -3.073,0 -5.546,2.162 -6.521,5.145 z" /><path
       style="fill:#4f6f19"
       id="path8"
       d="m 67.126,19.751 c 0,-8.388 7.083,-15.881 15.852,-15.881 4.946,0 8.281,2.199 10.23,5.592 l -3.822,2.572 C 87.812,9.648 85.901,8.082 82.452,8.082 c -5.62,0 -10.529,5.369 -10.529,11.482 0,4.287 2.96,7.084 7.12,7.084 2.96,0 4.909,-1.193 6.97,-2.982 l 3.035,3.057 C 86.575,29.11 83.502,30.862 78.968,30.862 72.223,30.861 67.126,26.611 67.126,19.751 Z" /><path
       style="fill:#4f6f19"
       id="path10"
       d="m 99.218,27.17 c 1.911,0 3.373,-0.635 5.06,-1.902 l 2.173,2.871 c -1.873,1.529 -4.271,2.723 -7.682,2.723 -5.509,0 -8.994,-3.318 -8.994,-8.613 0,-5.814 4.76,-11.929 11.655,-11.929 5.059,0 7.906,3.355 7.906,7.642 0,1.38 -0.337,2.834 -0.861,4.176 H 94.084 c 0,2.981 1.762,5.032 5.134,5.032 z m 5.621,-8.016 c 0.113,-0.336 0.188,-0.82 0.188,-1.379 0,-2.051 -1.199,-3.766 -3.935,-3.766 -3.073,0 -5.546,2.162 -6.521,5.145 z" /><path
       style="fill:#4f6f19"
       id="path12"
       d="m 112.758,10.729 h 4.534 l -1.162,4.437 c 2.174,-3.132 4.76,-5.033 8.282,-4.81 l -1.274,4.772 h -0.263 c -3.972,0 -7.42,2.535 -8.881,7.979 l -1.986,7.308 h -4.534 z" /><path
       style="fill:#4f6f19"
       id="path14"
       d="m 123.22,26.871 c 0,-0.746 0.112,-1.527 0.337,-2.273 l 2.661,-9.992 h -2.511 l 1.049,-3.877 h 2.511 l 1.462,-5.406 h 4.534 l -1.461,5.406 h 5.283 l -1.049,3.877 h -5.284 l -2.548,9.507 c -0.075,0.373 -0.15,0.82 -0.15,1.117 0,1.008 0.675,1.529 1.986,1.529 0.899,0 1.911,-0.225 2.886,-0.635 l -1.05,3.916 c -1.086,0.484 -2.323,0.707 -3.71,0.707 -3.185,0.001 -4.946,-1.526 -4.946,-3.876 z" /><path
       style="fill:#78a22f"
       id="path16"
       d="m 13.185,24.485 3.724,-2.7 c 0,0 5.866,-12.662 16.201,-21.042 l -0.559,-0.745 c 0,0 -5.679,2.607 -17.876,18.063 0,0 -1.118,-3.259 -3.539,-5.494 0,0 -2.7,0.559 -4.097,1.676 0,0 2.7,0.186 6.146,10.334" /><path
       style="fill:#4f6f19"
       id="path18"
       d="m 143.241,9.908 c -0.506,0.508 -1.118,0.762 -1.836,0.762 -0.718,0 -1.328,-0.254 -1.832,-0.762 -0.501,-0.506 -0.752,-1.119 -0.752,-1.839 0,-0.713 0.253,-1.323 0.759,-1.829 0.504,-0.503 1.112,-0.755 1.825,-0.755 0.718,0 1.33,0.252 1.836,0.755 0.506,0.504 0.759,1.114 0.759,1.829 0,0.718 -0.253,1.331 -0.759,1.839 z M 139.83,6.494 c -0.433,0.436 -0.649,0.962 -0.649,1.579 0,0.622 0.216,1.151 0.646,1.589 0.433,0.438 0.959,0.657 1.578,0.657 0.619,0 1.146,-0.219 1.579,-0.657 0.433,-0.438 0.649,-0.967 0.649,-1.589 0,-0.617 -0.216,-1.143 -0.649,-1.579 -0.436,-0.438 -0.962,-0.657 -1.579,-0.657 -0.614,0 -1.139,0.219 -1.575,0.657 z m 1.526,0.146 c 0.354,0 0.612,0.034 0.777,0.102 0.294,0.123 0.441,0.362 0.441,0.72 0,0.254 -0.093,0.441 -0.278,0.561 -0.098,0.063 -0.235,0.109 -0.411,0.138 0.223,0.036 0.386,0.128 0.488,0.279 0.102,0.151 0.154,0.297 0.154,0.44 v 0.208 c 0,0.066 0.003,0.137 0.007,0.212 0.006,0.075 0.014,0.125 0.025,0.148 l 0.018,0.035 h -0.469 C 142.105,9.474 142.103,9.464 142.1,9.455 142.098,9.446 142.096,9.435 142.093,9.423 L 142.082,9.332 V 9.107 c 0,-0.329 -0.089,-0.546 -0.269,-0.651 -0.105,-0.061 -0.292,-0.092 -0.559,-0.092 h -0.396 v 1.12 h -0.501 V 6.64 Z m 0.541,0.447 C 141.771,7.016 141.569,6.981 141.29,6.981 h -0.429 v 1.031 h 0.454 c 0.213,0 0.372,-0.021 0.479,-0.064 0.195,-0.078 0.294,-0.226 0.294,-0.445 0,-0.206 -0.064,-0.345 -0.191,-0.416 z" /></g></svg>